<svg xmlns="http://www.w3.org/2000/svg" xmlns:xlink="http://www.w3.org/1999/xlink" viewBox="0 0 32 32">
  <defs>
    <path id="a" d="M17.7106932 16.3889583l2.4771965-4.4169136.5929546-1.0571744 1.123244.4555767.4555789.1847432.0056162.0022908.0056162.0022908c2.7574901 1.1469595 5.0848222 2.3647865 7.0555242 3.69442L31 15.1016679C30.5348144 7.23574706 24.0036678 1 16.0137819 1c-1.9611692 0-3.8342525.37613709-5.5516335 1.05939123l6.288319 14.42267757.9602258-.0931105zm3.6764811-3.7444485l-9.904204 17.6596735C12.9126678 30.7556956 14.4345895 31 16.0137819 31c7.5840401 0 13.8535152-5.6185571 14.8689426-12.9162079-.1840051-.1602832-.3731092-.3184972-.5672383-.4738293-2.5188008-2.0149568-5.498575-3.5435957-8.4726591-4.780562l-.4556528-.184891zM6.33304431 27.4643852C3.07186791 24.7128943 1 20.5985161 1 15.9999631c0-2.7063397.71761991-5.2450803 1.97277119-7.437095 3.4703067.83829061 6.34514628 3.1043503 7.56519621 6.3989861 1.6416359 4.4325799-.2006321 9.4071961-4.20492309 12.502531z"/>
  </defs>
  <g fill="none" fill-rule="evenodd">
    <mask id="b" fill="#fff">
      <use xlink:href="#a"/>
    </mask>
    <use fill="#082622" xlink:href="#a"/>
    <g fill="#062521" fill-rule="nonzero" mask="url(#b)">
      <path d="M0 0h32v32H0z"/>
    </g>
  </g>
</svg>
